<svg width="50" height="50" viewBox="0 0 50 50" fill="none" xmlns="http://www.w3.org/2000/svg">
<path fill-rule="evenodd" clip-rule="evenodd" d="M8.88666 22.0708C8.88666 21.2611 9.54185 20.606 10.3515 20.606H14.746V49.9999H8.88666V32.3246V22.0708ZM0 33.7893C0 32.9797 0.655186 32.3245 1.46487 32.3245H5.85937V50H1.46487C0.655186 50 0 49.3448 0 48.5352V33.7893Z" fill="#B3ECEC"/>
<path fill-rule="evenodd" clip-rule="evenodd" d="M24.4879 0.354052L34.7419 9.14299C35.2083 9.54065 35.3757 10.1872 35.1625 10.7624C34.9508 11.3375 34.4028 11.7194 33.7891 11.7194H29.3946V16.5255C24.1854 19.1982 20.6055 24.6134 20.6055 30.8597C20.6055 37.1062 24.1854 42.5212 29.3946 45.194V48.5352C29.3946 49.3448 28.7394 50 27.9297 50H17.6758V11.7194H13.2813C12.6675 11.7194 12.1196 11.3374 11.9079 10.7623C11.6948 10.1872 11.8622 9.54065 12.3285 9.14299L22.5824 0.354052C23.1289 -0.118017 23.9414 -0.118017 24.4879 0.354052ZM23.5351 30.8596C23.5351 23.5899 29.449 17.6763 36.7188 17.6763C43.9887 17.6763 50 23.5899 50 30.8596C50 38.1293 43.9886 44.043 36.7188 44.043C29.4489 44.043 23.5351 38.1293 23.5351 30.8596ZM38.2024 37.9227C38.2091 37.9221 38.2157 37.9215 38.2222 37.9191C39.9517 37.2897 41.1133 35.6303 41.1132 33.7894C41.1132 31.3663 39.1419 29.395 36.7187 29.395C35.9104 29.395 35.2538 28.7383 35.2538 27.9301C35.2538 27.3393 35.6057 26.81 36.1493 26.5798C36.8017 26.3008 37.5899 26.5383 38.3023 27.2292C38.883 27.7914 39.8115 27.7785 40.3737 27.1977C40.9374 26.6155 40.923 25.6885 40.3422 25.1263C39.6818 24.4867 38.9421 24.0794 38.1836 23.8231V22.0708C38.1836 21.2611 37.5284 20.6059 36.7188 20.6059C35.9091 20.6059 35.2539 21.2611 35.2539 22.0708V23.8205C35.2163 23.8339 35.1778 23.8408 35.1393 23.8476C35.0946 23.8555 35.0498 23.8634 35.0064 23.8818C33.377 24.5712 32.3241 26.1605 32.3241 27.93C32.3241 30.3532 34.2954 32.3245 36.7187 32.3245C37.5269 32.3245 38.1835 32.9811 38.1835 33.7893C38.1835 34.403 37.7958 34.9566 37.2193 35.1668C36.4697 35.4358 35.5928 35.0696 34.8174 34.1469C34.301 33.526 33.3741 33.4459 32.7546 33.9666C32.1337 34.4859 32.0536 35.41 32.5743 36.0294C33.3646 36.9715 34.289 37.5901 35.2538 37.916V39.6486C35.2538 40.4582 35.909 41.1134 36.7187 41.1134C37.5283 41.1134 38.1835 40.4582 38.1835 39.6486V37.926C38.1897 37.9239 38.1961 37.9233 38.2024 37.9227Z" fill="white"/>
</svg>
