<svg width="40" height="28" viewBox="0 0 40 28" fill="none" xmlns="http://www.w3.org/2000/svg">
<path fill-rule="evenodd" clip-rule="evenodd" d="M39.1757 4.38133C38.7148 2.6681 37.3637 1.31757 35.6503 0.856251C32.5202 0 19.9995 0 19.9995 0C19.9995 0 7.47923 0 4.34911 0.823788C2.6687 1.28462 1.28467 2.66834 0.823729 4.38133C0 7.5105 0 14 0 14C0 14 0 20.5222 0.823729 23.6187C1.28515 25.3317 2.63574 26.6822 4.34936 27.1435C7.51219 28 20 28 20 28C20 28 32.5202 28 35.6503 27.1762C37.3639 26.7151 38.7148 25.3646 39.1762 23.6516C39.9997 20.5222 39.9997 14.033 39.9997 14.033C39.9997 14.033 40.0326 7.5105 39.1757 4.38133V4.38133ZM16.0131 19.9952V8.00478L26.4247 14L16.0131 19.9952Z" fill="currentColor"/>
</svg>
