<svg width="50" height="50" viewBox="0 0 50 50" fill="none" xmlns="http://www.w3.org/2000/svg">
<path fill-rule="evenodd" clip-rule="evenodd" d="M2.92969 11.9141C2.92969 15.1456 5.55752 17.7734 8.78906 17.7734C3.94248 17.7734 0 21.7159 0 26.5625V33.8867C0 34.6964 0.655176 35.3516 1.46484 35.3516H3.06846L4.40166 48.6811C4.47607 49.4292 5.10693 50 5.85938 50H11.7188C12.4712 50 13.1021 49.4292 13.1765 48.6811L14.2592 37.8565C12.7636 37.1547 11.7188 35.6452 11.7188 33.8867V25.0977C11.7188 22.902 12.3096 20.8615 13.2628 19.0389C11.9475 18.2537 10.4291 17.7734 8.78906 17.7734C12.0206 17.7734 14.6484 15.1456 14.6484 11.9141C14.6484 8.68252 12.0206 6.05469 8.78906 6.05469C5.55752 6.05469 2.92969 8.68252 2.92969 11.9141ZM35.3516 11.9141C35.3516 15.1456 37.9794 17.7734 41.2109 17.7734C39.5709 17.7734 38.0525 18.2537 36.7372 19.0389C37.6904 20.8615 38.2812 22.902 38.2812 25.0977V33.8867C38.2812 35.6452 37.2364 37.1547 35.7408 37.8565L36.8235 48.6811C36.8979 49.4292 37.5288 50 38.2812 50H44.1406C44.8931 50 45.5239 49.4292 45.5983 48.6811L46.9315 35.3516H48.5352C49.3448 35.3516 50 34.6964 50 33.8867V26.5625C50 21.7159 46.0575 17.7734 41.2109 17.7734C44.4425 17.7734 47.0703 15.1456 47.0703 11.9141C47.0703 8.68252 44.4425 6.05469 41.2109 6.05469C37.9794 6.05469 35.3516 8.68252 35.3516 11.9141Z" fill="#B3ECEC"/>
<path fill-rule="evenodd" clip-rule="evenodd" d="M17.6758 7.32422C17.6758 11.3626 20.9616 14.6484 25 14.6484C29.0384 14.6484 32.3242 11.3626 32.3242 7.32422C32.3242 3.28584 29.0384 0 25 0C20.9616 0 17.6758 3.28584 17.6758 7.32422ZM26.4648 24.9023V14.7965C31.4209 15.5149 35.2539 19.7505 35.2539 24.9023V33.6914C35.2539 34.5011 34.5987 35.1562 33.7891 35.1562H30.5074L29.3888 48.6582C29.3259 49.4163 28.6907 50 27.9297 50H22.0703C21.3093 50 20.6741 49.4163 20.6112 48.6582L19.4926 35.1562H16.2109C15.4013 35.1562 14.7461 34.5011 14.7461 33.6914V24.9023C14.7461 19.7505 18.5791 15.5149 23.5352 14.7965V24.9023C23.5352 25.712 24.1903 26.3672 25 26.3672C25.8097 26.3672 26.4648 25.712 26.4648 24.9023Z" fill="white"/>
</svg>
