<svg width="54" height="54" viewBox="0 0 54 54" fill="none" xmlns="http://www.w3.org/2000/svg">
<path fill-rule="evenodd" clip-rule="evenodd" d="M53.92 4.79758C54.0923 5.25447 53.9812 5.76989 53.636 6.11509L48.3983 11.3527L46.6098 13.1413C49.6932 17.3872 51.5147 22.6059 51.5147 28.2427C51.5147 42.4454 39.9601 54 25.7574 54C11.5547 54 0 42.4453 0 28.2426C0 14.04 11.5547 2.48539 25.7574 2.48539C31.3943 2.48539 36.613 4.30694 40.8589 7.39032L42.6474 5.60167L47.8852 0.364096C48.2305 0.0190019 48.7458 -0.092584 49.2026 0.0802792C49.6594 0.252615 49.9729 0.676599 50.004 1.16386L50.1736 3.82663L52.8364 3.99633C53.3236 4.02745 53.7476 4.34079 53.92 4.79758ZM5.03246 28.2427C5.03246 39.6705 14.3297 48.9676 25.7575 48.9676C37.1853 48.9676 46.4825 39.6704 46.4826 28.2425C46.4826 23.3622 44.7859 18.8714 41.9529 15.3264L39.9616 15.1995C39.3376 15.1597 38.8403 14.6625 38.8005 14.0384L38.6736 12.0474C35.1286 9.2144 30.6378 7.51783 25.7575 7.51783C14.3297 7.51783 5.03246 16.815 5.03246 28.2427ZM29.5827 26.175L33.3847 22.3731C34.6391 23.9993 35.388 26.0348 35.3879 28.2427C35.3879 33.5529 31.0675 37.8732 25.7574 37.8732C20.4472 37.8732 16.1269 33.5529 16.1269 28.2427C16.1269 22.9324 20.4471 18.6123 25.7574 18.6123C27.9655 18.6123 30.0009 19.3611 31.6271 20.6156L27.8252 24.4175C27.2102 24.0843 26.506 23.8951 25.7575 23.8951C23.3563 23.8951 21.4098 25.8415 21.4098 28.2427C21.4098 30.644 23.3563 32.5904 25.7575 32.5904C28.1587 32.5904 30.1051 30.6438 30.1051 28.2427C30.1051 27.4942 29.9159 26.79 29.5827 26.175Z" fill="white"/>
<path fill-rule="evenodd" clip-rule="evenodd" d="M39.4973 16.2604L35.154 20.6037C36.8529 22.6895 37.8731 25.349 37.8731 28.2428C37.8731 34.9235 32.438 40.3585 25.7573 40.3585C19.0766 40.3585 13.6415 34.9235 13.6415 28.2428C13.6415 21.5621 19.0766 16.127 25.7573 16.127C28.6511 16.127 31.3106 17.1472 33.3964 18.8461L37.7398 14.5028C34.5323 11.7022 30.3397 10.0031 25.7573 10.0031C15.6999 10.0031 7.51758 18.1854 7.51758 28.2427C7.51758 38.2999 15.6999 46.4822 25.7573 46.4822C35.8147 46.4822 43.997 38.2999 43.997 28.2427C43.9972 23.6604 42.2979 19.4677 39.4973 16.2604Z" fill="#B3ECEC"/>
</svg>
