<svg width="50" height="50" viewBox="0 0 50 50" fill="none" xmlns="http://www.w3.org/2000/svg">
<path fill-rule="evenodd" clip-rule="evenodd" d="M50 11.7647V4.41176C50 1.97912 48.0286 0 45.6055 0H4.39453C1.97139 0 0 1.97912 0 4.41176V11.7647H50ZM33.7891 5.88235H42.5781C43.3871 5.88235 44.043 6.54078 44.043 7.35294C44.043 8.1651 43.3871 8.82353 42.5781 8.82353H33.7891C32.9801 8.82353 32.3242 8.1651 32.3242 7.35294C32.3242 6.54078 32.9801 5.88235 33.7891 5.88235ZM19.1406 5.88235C19.9496 5.88235 20.6055 6.54078 20.6055 7.35294C20.6055 8.1651 19.9496 8.82353 19.1406 8.82353C18.3316 8.82353 17.6758 8.1651 17.6758 7.35294C17.6758 6.54078 18.3316 5.88235 19.1406 5.88235ZM13.2812 5.88235C14.0902 5.88235 14.7461 6.54078 14.7461 7.35294C14.7461 8.1651 14.0902 8.82353 13.2812 8.82353C12.4723 8.82353 11.8164 8.1651 11.8164 7.35294C11.8164 6.54078 12.4723 5.88235 13.2812 5.88235ZM7.42188 5.88235C8.23086 5.88235 8.88672 6.54078 8.88672 7.35294C8.88672 8.1651 8.23086 8.82353 7.42188 8.82353C6.61289 8.82353 5.95703 8.1651 5.95703 7.35294C5.95703 6.54078 6.61289 5.88235 7.42188 5.88235Z" fill="#B3ECEC"/>
<path fill-rule="evenodd" clip-rule="evenodd" d="M0 14.7059V45.5882C0 48.0209 1.97139 50 4.39453 50H45.6055C48.0286 50 50 48.0209 50 45.5882V14.7059H0ZM17.126 35.6164C17.7578 36.1237 17.8602 37.0491 17.3548 37.6833C16.8495 38.3174 15.9275 38.4204 15.2959 37.9129L7.97168 32.0306C7.23936 31.4426 7.23887 30.3223 7.97168 29.7339L15.2959 23.8516C15.9273 23.3442 16.8493 23.4469 17.3548 24.0812C17.8602 24.7154 17.7578 25.6409 17.126 26.1481L11.2316 30.8823L17.126 35.6164ZM30.7409 21.1675L21.9519 41.7558C21.6332 42.5021 20.7723 42.8482 20.0284 42.5281C19.2849 42.2082 18.9403 41.3436 19.2591 40.5971L28.0481 20.0089C28.3669 19.2624 29.228 18.9167 29.9716 19.2366C30.7151 19.5565 31.0597 20.421 30.7409 21.1675ZM42.0283 32.0307L34.7041 37.913C34.0734 38.4197 33.1514 38.3185 32.6452 37.6834C32.1398 37.0492 32.2422 36.1237 32.874 35.6165L38.7684 30.8823L32.874 26.1483C32.2422 25.641 32.1398 24.7156 32.6452 24.0814C33.1505 23.4471 34.0724 23.3443 34.7041 23.8518L42.0283 29.7341C42.7606 30.322 42.7611 31.4422 42.0283 32.0307Z" fill="white"/>
</svg>
