<svg width="40" height="33" viewBox="0 0 40 33" fill="none" xmlns="http://www.w3.org/2000/svg">
<path fill-rule="evenodd" clip-rule="evenodd" d="M40 3.90669C38.5125 4.56923 36.9275 5.00838 35.275 5.22162C36.975 4.191 38.2725 2.57146 38.8825 0.619385C37.2975 1.57892 35.5475 2.25669 33.6825 2.63492C32.1775 1.00777 30.0325 0 27.6925 0C23.1525 0 19.4975 3.74169 19.4975 8.32869C19.4975 8.98869 19.5525 9.62331 19.6875 10.2275C12.87 9.88985 6.8375 6.57208 2.785 1.518C2.0775 2.76438 1.6625 4.191 1.6625 5.72677C1.6625 8.61046 3.125 11.1667 5.305 12.6466C3.9875 12.6212 2.695 12.2328 1.6 11.6211C1.6 11.6465 1.6 11.6795 1.6 11.7125C1.6 15.7588 4.4425 19.1197 8.17 19.8939C7.5025 20.0792 6.775 20.1681 6.02 20.1681C5.495 20.1681 4.965 20.1376 4.4675 20.0259C5.53 23.3234 8.545 25.7476 12.13 25.8263C9.34 28.0424 5.7975 29.3776 1.9625 29.3776C1.29 29.3776 0.645 29.3472 0 29.2634C3.6325 31.6419 7.9375 33 12.58 33C27.67 33 35.92 20.3077 35.92 9.306C35.92 8.93792 35.9075 8.58254 35.89 8.22969C37.5175 7.05692 38.885 5.59223 40 3.90669Z" fill="currentColor"/>
</svg>
